<?xml version="1.0" encoding="utf-8"?>
<!-- Generator: Adobe Illustrator 16.0.0, SVG Export Plug-In . SVG Version: 6.00 Build 0)  -->
<!DOCTYPE svg PUBLIC "-//W3C//DTD SVG 1.1//EN" "http://www.w3.org/Graphics/SVG/1.1/DTD/svg11.dtd">
<svg version="1.1" id="Layer_1" xmlns="http://www.w3.org/2000/svg" xmlns:xlink="http://www.w3.org/1999/xlink" x="0px" y="0px"
	 width="4000px" height="4000px" viewBox="0 0 4000 4000" enable-background="new 0 0 4000 4000" xml:space="preserve">
<rect fill="#FFFFFF" width="4000" height="4000"/>
<g>
	<g>
		<defs>
			<path id="SVGID_1_" d="M2231.486,1929.11l-229.206,55.747c82.079,76.768,253.64,44.905,360.565-2.74
				c-7.14-26.856-11.979-54.05-14.848-81.342L2231.486,1929.11z"/>
		</defs>
		<clipPath id="SVGID_2_">
			<use xlink:href="#SVGID_1_"  overflow="visible"/>
		</clipPath>
		<linearGradient id="SVGID_3_" gradientUnits="userSpaceOnUse" x1="2209.293" y1="2024.1055" x2="2080.3591" y2="1817.1377">
			<stop  offset="0" style="stop-color:#008A80"/>
			<stop  offset="1" style="stop-color:#EBF855"/>
		</linearGradient>
		<rect x="2002.28" y="1900.774" clip-path="url(#SVGID_2_)" fill="url(#SVGID_3_)" width="360.565" height="160.85"/>
	</g>
	<defs>
		<filter id="Adobe_OpacityMaskFilter" filterUnits="userSpaceOnUse" x="2002.28" y="1900.774" width="349.191" height="89.685">
			<feColorMatrix  type="matrix" values="1 0 0 0 0  0 1 0 0 0  0 0 1 0 0  0 0 0 1 0"/>
		</filter>
	</defs>
	<mask maskUnits="userSpaceOnUse" x="2002.28" y="1900.774" width="349.191" height="89.685" id="SVGID_4_">
		<g filter="url(#Adobe_OpacityMaskFilter)">
			
				<linearGradient id="SVGID_5_" gradientUnits="userSpaceOnUse" x1="909.1284" y1="4620.6748" x2="-89.7997" y2="4268.25" gradientTransform="matrix(1 0 0 1 1567.2432 -2569.3945)">
				<stop  offset="0" style="stop-color:#FFFFFF"/>
				<stop  offset="1" style="stop-color:#000000"/>
			</linearGradient>
			<rect x="2002.28" y="1900.774" fill="url(#SVGID_5_)" width="349.191" height="89.688"/>
		</g>
	</mask>
	<path mask="url(#SVGID_4_)" fill-rule="evenodd" clip-rule="evenodd" fill="#005B50" d="M2231.486,1929.11l-229.206,55.747
		c0,0,195.439,32.073,349.191-57.253c-1.378-8.925-2.531-17.871-3.474-26.829L2231.486,1929.11z"/>
	<g>
		<defs>
			<path id="SVGID_6_" d="M2153.642,1844.946l-288.641,22.007c95.233,123.641,356.843,101.582,487.67,52.387
				c-5.165-29.478-7.972-59.218-8.776-88.9L2153.642,1844.946z"/>
		</defs>
		<clipPath id="SVGID_7_">
			<use xlink:href="#SVGID_6_"  overflow="visible"/>
		</clipPath>
		<linearGradient id="SVGID_8_" gradientUnits="userSpaceOnUse" x1="2104.9131" y1="1911.5474" x2="1730.1481" y2="2010.0853">
			<stop  offset="0" style="stop-color:#008A80"/>
			<stop  offset="1" style="stop-color:#EBF855"/>
		</linearGradient>
		<rect x="1865.001" y="1830.439" clip-path="url(#SVGID_7_)" fill="url(#SVGID_8_)" width="487.67" height="160.155"/>
	</g>
	<g>
		<defs>
			<path id="SVGID_9_" d="M2063.364,1715.134l-366.115-40.774c99.305,195.821,495.023,217.106,647.152,169.149
				c-1.521-32.449-0.636-64.868,2.15-96.839L2063.364,1715.134z"/>
		</defs>
		<clipPath id="SVGID_10_">
			<use xlink:href="#SVGID_9_"  overflow="visible"/>
		</clipPath>
		<linearGradient id="SVGID_11_" gradientUnits="userSpaceOnUse" x1="1949.0576" y1="1780.9468" x2="1578.6792" y2="1770.9507">
			<stop  offset="0" style="stop-color:#008A80"/>
			<stop  offset="1" style="stop-color:#EBF855"/>
		</linearGradient>
		<rect x="1697.25" y="1674.359" clip-path="url(#SVGID_10_)" fill="url(#SVGID_11_)" width="649.302" height="217.106"/>
	</g>
	<g>
		<defs>
			<path id="SVGID_12_" d="M2027.934,1558.932l-400.594-133.799c68.528,259.808,563.433,377.948,717.823,339.978
				c1.627-25.581,4.495-50.928,8.368-75.818l-7.103-23.982L2027.934,1558.932z"/>
		</defs>
		<clipPath id="SVGID_13_">
			<use xlink:href="#SVGID_12_"  overflow="visible"/>
		</clipPath>
		<linearGradient id="SVGID_14_" gradientUnits="userSpaceOnUse" x1="2042.3369" y1="1624.6177" x2="1484.2684" y2="1511.5956">
			<stop  offset="0" style="stop-color:#008A80"/>
			<stop  offset="1" style="stop-color:#EBF855"/>
		</linearGradient>
		<rect x="1627.339" y="1425.133" clip-path="url(#SVGID_13_)" fill="url(#SVGID_14_)" width="726.191" height="377.948"/>
	</g>
	<g>
		<defs>
			<path id="SVGID_15_" d="M2075.977,1415.889l-361.815-217.868c10.579,276.566,495.424,504.998,639.985,487.277
				c3.327-20.792,7.357-41.228,11.88-61.228l-2.386-34.964L2075.977,1415.889z"/>
		</defs>
		<clipPath id="SVGID_16_">
			<use xlink:href="#SVGID_15_"  overflow="visible"/>
		</clipPath>
		<linearGradient id="SVGID_17_" gradientUnits="userSpaceOnUse" x1="2155.2578" y1="1580.7407" x2="1741.731" y2="1113.1494">
			<stop  offset="0" style="stop-color:#008A80"/>
			<stop  offset="1" style="stop-color:#EBF855"/>
		</linearGradient>
		<rect x="1714.162" y="1198.021" clip-path="url(#SVGID_16_)" fill="url(#SVGID_17_)" width="651.865" height="504.998"/>
	</g>
	<g>
		<defs>
			<path id="SVGID_18_" d="M2160.129,1318.551l-294.726-265.996c-39.821,256.583,364.863,553.759,502.213,564.467
				c7.226-30.955,15.665-60.74,24.693-88.923L2160.129,1318.551z"/>
		</defs>
		<clipPath id="SVGID_19_">
			<use xlink:href="#SVGID_18_"  overflow="visible"/>
		</clipPath>
		<linearGradient id="SVGID_20_" gradientUnits="userSpaceOnUse" x1="2305.8076" y1="1572.6924" x2="1837.0957" y2="1006.2599">
			<stop  offset="0" style="stop-color:#008A80"/>
			<stop  offset="1" style="stop-color:#EBF855"/>
		</linearGradient>
		<rect x="1825.583" y="1052.555" clip-path="url(#SVGID_19_)" fill="url(#SVGID_20_)" width="566.727" height="564.467"/>
	</g>
	<g>
		<defs>
			<path id="SVGID_21_" d="M2266.082,1256.474l-213.979-281.292c-74.612,210.769,208.337,523.322,334.085,572.536
				c9.897-32.785,20.737-63.594,31.648-91.759L2266.082,1256.474z"/>
		</defs>
		<clipPath id="SVGID_22_">
			<use xlink:href="#SVGID_21_"  overflow="visible"/>
		</clipPath>
		<linearGradient id="SVGID_23_" gradientUnits="userSpaceOnUse" x1="2283.7109" y1="1528.1396" x2="2112.24" y2="996.6943">
			<stop  offset="0" style="stop-color:#008A80"/>
			<stop  offset="1" style="stop-color:#EBF855"/>
		</linearGradient>
		<rect x="1977.491" y="975.182" clip-path="url(#SVGID_22_)" fill="url(#SVGID_23_)" width="440.346" height="572.536"/>
	</g>
	<g>
		<defs>
			<path id="SVGID_24_" d="M2401.492,1923.771c-27.087-115.273-30.628-265.396,34.72-443.656l-226.836-298.187
				c0,0,20.997,189.269,103.245,319.781c0,0-108.813,230.078-53.334,462.39c23.046,96.5,74.439,193.385,173.752,274.325
				c33.108-12.621,65.431-30.041,96.609-53.553C2529.648,2184.871,2440.792,2090.997,2401.492,1923.771"/>
		</defs>
		<clipPath id="SVGID_25_">
			<use xlink:href="#SVGID_24_"  overflow="visible"/>
		</clipPath>
		<linearGradient id="SVGID_26_" gradientUnits="userSpaceOnUse" x1="2326.9736" y1="2014.1104" x2="2396.5413" y2="1482.2563">
			<stop  offset="0" style="stop-color:#00478F"/>
			<stop  offset="1" style="stop-color:#47EADF"/>
		</linearGradient>
		<rect x="2203.809" y="1181.928" clip-path="url(#SVGID_25_)" fill="url(#SVGID_26_)" width="325.84" height="1056.496"/>
	</g>
	<defs>
		
			<filter id="Adobe_OpacityMaskFilter_1_" filterUnits="userSpaceOnUse" x="2209.376" y="1181.928" width="320.272" height="1019.399">
			<feColorMatrix  type="matrix" values="1 0 0 0 0  0 1 0 0 0  0 0 1 0 0  0 0 0 1 0"/>
		</filter>
	</defs>
	<mask maskUnits="userSpaceOnUse" x="2209.376" y="1181.928" width="320.272" height="1019.399" id="SVGID_27_">
		<g filter="url(#Adobe_OpacityMaskFilter_1_)">
			
				<linearGradient id="SVGID_28_" gradientUnits="userSpaceOnUse" x1="711.168" y1="3686.0674" x2="829.7994" y2="4614.8193" gradientTransform="matrix(1 0 0 1 1587.5459 -2548.7227)">
				<stop  offset="0" style="stop-color:#FFFFFF"/>
				<stop  offset="1" style="stop-color:#000000"/>
			</linearGradient>
			<rect x="2209.376" y="1181.928" fill="url(#SVGID_28_)" width="320.274" height="1019.399"/>
		</g>
	</mask>
	<path mask="url(#SVGID_27_)" fill-rule="evenodd" clip-rule="evenodd" fill="#5EF9F6" d="M2401.492,1923.771
		c-27.087-115.273-30.628-265.396,34.72-443.656l-226.836-298.187c0,0,109.636,165.316,191.884,295.826
		c0,0-108.813,230.081-53.334,462.393c21.811,91.332,69.022,183.003,158.213,261.18c7.902-5.12,15.744-10.599,23.51-16.456
		C2529.648,2184.871,2440.792,2090.997,2401.492,1923.771"/>
	<defs>
		
			<filter id="Adobe_OpacityMaskFilter_2_" filterUnits="userSpaceOnUse" x="1865.403" y="1052.555" width="446.821" height="467.934">
			<feColorMatrix  type="matrix" values="1 0 0 0 0  0 1 0 0 0  0 0 1 0 0  0 0 0 1 0"/>
		</filter>
	</defs>
	<mask maskUnits="userSpaceOnUse" x="1865.403" y="1052.555" width="446.821" height="467.934" id="SVGID_29_">
		<g filter="url(#Adobe_OpacityMaskFilter_2_)">
			
				<linearGradient id="SVGID_30_" gradientUnits="userSpaceOnUse" x1="914.5898" y1="4036.0361" x2="120.7891" y2="3755.7268" gradientTransform="matrix(1 0 0 1 1553.8242 -2615.4688)">
				<stop  offset="0" style="stop-color:#FFFFFF"/>
				<stop  offset="1" style="stop-color:#000000"/>
			</linearGradient>
			<rect x="1865.403" y="1052.557" fill="url(#SVGID_30_)" width="446.821" height="467.932"/>
		</g>
	</mask>
	<path mask="url(#SVGID_29_)" fill-rule="evenodd" clip-rule="evenodd" fill="#005B50" d="M1865.403,1052.555
		c0,0,130.856,312.035,439.147,467.934c3.904-9.612,6.684-15.766,7.674-17.92c-65.099-50.489-141.393-132.853-196.66-224.239
		L1865.403,1052.555z"/>
	<defs>
		
			<filter id="Adobe_OpacityMaskFilter_3_" filterUnits="userSpaceOnUse" x="1714.162" y="1198.021" width="566.129" height="431.209">
			<feColorMatrix  type="matrix" values="1 0 0 0 0  0 1 0 0 0  0 0 1 0 0  0 0 0 1 0"/>
		</filter>
	</defs>
	<mask maskUnits="userSpaceOnUse" x="1714.162" y="1198.021" width="566.129" height="431.209" id="SVGID_31_">
		<g filter="url(#Adobe_OpacityMaskFilter_3_)">
			
				<linearGradient id="SVGID_32_" gradientUnits="userSpaceOnUse" x1="1084.4312" y1="4239.3584" x2="85.4993" y2="3886.9324" gradientTransform="matrix(1 0 0 1 1538.9971 -2604.8076)">
				<stop  offset="0" style="stop-color:#FFFFFF"/>
				<stop  offset="1" style="stop-color:#000000"/>
			</linearGradient>
			<rect x="1714.162" y="1198.018" fill="url(#SVGID_32_)" width="566.129" height="431.211"/>
		</g>
	</mask>
	<path mask="url(#SVGID_31_)" fill-rule="evenodd" clip-rule="evenodd" fill="#005B50" d="M2280.291,1589.466
		c-88.185-41.359-203.545-125.038-290.671-225.578l-275.458-165.867c0,0,274.791,322.453,555.036,431.209
		C2272.812,1615.012,2276.57,1601.708,2280.291,1589.466"/>
	<defs>
		
			<filter id="Adobe_OpacityMaskFilter_4_" filterUnits="userSpaceOnUse" x="1627.339" y="1425.133" width="631.504" height="282.782">
			<feColorMatrix  type="matrix" values="1 0 0 0 0  0 1 0 0 0  0 0 1 0 0  0 0 0 1 0"/>
		</filter>
	</defs>
	<mask maskUnits="userSpaceOnUse" x="1627.339" y="1425.133" width="631.504" height="282.782" id="SVGID_33_">
		<g filter="url(#Adobe_OpacityMaskFilter_4_)">
			
				<linearGradient id="SVGID_34_" gradientUnits="userSpaceOnUse" x1="1038.9775" y1="4384.6025" x2="40.0472" y2="4032.177" gradientTransform="matrix(1 0 0 1 1530.4858 -2597.0938)">
				<stop  offset="0" style="stop-color:#FFFFFF"/>
				<stop  offset="1" style="stop-color:#000000"/>
			</linearGradient>
			<rect x="1627.339" y="1425.13" fill="url(#SVGID_34_)" width="631.502" height="282.784"/>
		</g>
	</mask>
	<path mask="url(#SVGID_33_)" fill-rule="evenodd" clip-rule="evenodd" fill="#005B50" d="M1627.339,1425.133
		c0,0,307.124,232.957,625.634,282.782c1.78-11.304,3.755-22.306,5.87-32.967c-85.438-21.093-198.274-70.549-299.095-138.787
		L1627.339,1425.133z"/>
	<defs>
		
			<filter id="Adobe_OpacityMaskFilter_5_" filterUnits="userSpaceOnUse" x="1697.25" y="1674.359" width="548.319" height="123.471">
			<feColorMatrix  type="matrix" values="1 0 0 0 0  0 1 0 0 0  0 0 1 0 0  0 0 0 1 0"/>
		</filter>
	</defs>
	<mask maskUnits="userSpaceOnUse" x="1697.25" y="1674.359" width="548.319" height="123.471" id="SVGID_35_">
		<g filter="url(#Adobe_OpacityMaskFilter_5_)">
			
				<linearGradient id="SVGID_36_" gradientUnits="userSpaceOnUse" x1="982.0068" y1="4517.6523" x2="-16.8271" y2="4165.3271" gradientTransform="matrix(1 0 0 1 1537.3394 -2588.2793)">
				<stop  offset="0" style="stop-color:#FFFFFF"/>
				<stop  offset="1" style="stop-color:#000000"/>
			</linearGradient>
			<rect x="1697.25" y="1674.359" fill="url(#SVGID_36_)" width="548.318" height="123.472"/>
		</g>
	</mask>
	<path mask="url(#SVGID_35_)" fill-rule="evenodd" clip-rule="evenodd" fill="#005B50" d="M1697.25,1674.359
		c0,0,203.678,147.15,546.939,120.167c0.339-7.827,0.801-15.58,1.38-23.242c-86.299-4.456-199.261-27.957-305.443-69.875
		L1697.25,1674.359z"/>
	<defs>
		
			<filter id="Adobe_OpacityMaskFilter_6_" filterUnits="userSpaceOnUse" x="1865.001" y="1854.628" width="382.473" height="48.334">
			<feColorMatrix  type="matrix" values="1 0 0 0 0  0 1 0 0 0  0 0 1 0 0  0 0 0 1 0"/>
		</filter>
	</defs>
	<mask maskUnits="userSpaceOnUse" x="1865.001" y="1854.628" width="382.473" height="48.334" id="SVGID_37_">
		<g filter="url(#Adobe_OpacityMaskFilter_6_)">
			
				<linearGradient id="SVGID_38_" gradientUnits="userSpaceOnUse" x1="930.2227" y1="4607.6885" x2="-68.7091" y2="4255.2627" gradientTransform="matrix(1 0 0 1 1553.7852 -2577.9727)">
				<stop  offset="0" style="stop-color:#FFFFFF"/>
				<stop  offset="1" style="stop-color:#000000"/>
			</linearGradient>
			<rect x="1865.001" y="1854.631" fill="url(#SVGID_38_)" width="382.473" height="48.333"/>
		</g>
	</mask>
	<path mask="url(#SVGID_37_)" fill-rule="evenodd" clip-rule="evenodd" fill="#005B50" d="M1865.001,1866.953
		c0,0,192.769,54.648,382.473,29.302c-1.308-11.553-2.264-23.048-2.91-34.449c-64.464,5.939-141.574,4.418-217.936-7.177
		L1865.001,1866.953z"/>
	<g>
		<defs>
			<path id="SVGID_39_" d="M1876.335,2884.28c175.758-15.858,305.313-331.54,289.83-423.885c-14.382,0.21-28.51-0.017-42.271-0.587
				L1876.335,2884.28z"/>
		</defs>
		<clipPath id="SVGID_40_">
			<use xlink:href="#SVGID_39_"  overflow="visible"/>
		</clipPath>
		<linearGradient id="SVGID_41_" gradientUnits="userSpaceOnUse" x1="1843.1338" y1="2888.1045" x2="2009.5029" y2="2694.7017">
			<stop  offset="0" style="stop-color:#FFCE4B"/>
			<stop  offset="1" style="stop-color:#F856BF"/>
		</linearGradient>
		<rect x="1876.335" y="2459.809" clip-path="url(#SVGID_40_)" fill="url(#SVGID_41_)" width="305.313" height="424.472"/>
	</g>
	<g>
		<defs>
			<path id="SVGID_42_" d="M2039.131,2695.915l-68.857,298.573c188-69.389,236.643-453.826,192.343-550.486
				c-11.716,3.347-23.348,6.383-34.834,9.142l-54.029,92.636L2039.131,2695.915z"/>
		</defs>
		<clipPath id="SVGID_43_">
			<use xlink:href="#SVGID_42_"  overflow="visible"/>
		</clipPath>
		<linearGradient id="SVGID_44_" gradientUnits="userSpaceOnUse" x1="1950.2329" y1="2912.0078" x2="2102.5254" y2="2699.8376">
			<stop  offset="0" style="stop-color:#FFCE4B"/>
			<stop  offset="1" style="stop-color:#F856BF"/>
		</linearGradient>
		<rect x="1970.274" y="2444.002" clip-path="url(#SVGID_43_)" fill="url(#SVGID_44_)" width="236.643" height="550.486"/>
	</g>
	<g>
		<defs>
			<path id="SVGID_45_" d="M2095.202,2709.891l6.845,315.109c169.905-116.723,121.193-512.332,52.582-597.507
				c-5.916,3.437-11.832,6.781-17.734,10.026l-45.896,78.695L2095.202,2709.891z"/>
		</defs>
		<clipPath id="SVGID_46_">
			<use xlink:href="#SVGID_45_"  overflow="visible"/>
		</clipPath>
		<linearGradient id="SVGID_47_" gradientUnits="userSpaceOnUse" x1="2050.5371" y1="2868.3574" x2="2188.0391" y2="2719.1235">
			<stop  offset="0" style="stop-color:#FFCE4B"/>
			<stop  offset="1" style="stop-color:#F856BF"/>
		</linearGradient>
		<rect x="2090.999" y="2427.493" clip-path="url(#SVGID_46_)" fill="url(#SVGID_47_)" width="180.953" height="597.507"/>
	</g>
	<g>
		<defs>
			<path id="SVGID_48_" d="M2159.697,2684.49l73.183,286.606c130.529-142.794,1.975-494.096-78.839-557.388
				c-2.367,2.229-4.742,4.434-7.119,6.617l-38.027,65.202L2159.697,2684.49z"/>
		</defs>
		<clipPath id="SVGID_49_">
			<use xlink:href="#SVGID_48_"  overflow="visible"/>
		</clipPath>
		<linearGradient id="SVGID_50_" gradientUnits="userSpaceOnUse" x1="2180.3896" y1="2825.3633" x2="2244.3469" y2="2672.8643">
			<stop  offset="0" style="stop-color:#FFCE4B"/>
			<stop  offset="1" style="stop-color:#F856BF"/>
		</linearGradient>
		<rect x="2108.895" y="2413.709" clip-path="url(#SVGID_49_)" fill="url(#SVGID_50_)" width="254.515" height="557.388"/>
	</g>
	<g>
		<defs>
			<path id="SVGID_51_" d="M2190.866,2626.303l112.749,223.502c81.827-141.807-88.48-408.68-166.805-446.244l-1.379,2.013
				c7.016,8.475,11.49,14.753,11.49,14.753l-32.152,55.129L2190.866,2626.303z"/>
		</defs>
		<clipPath id="SVGID_52_">
			<use xlink:href="#SVGID_51_"  overflow="visible"/>
		</clipPath>
		<linearGradient id="SVGID_53_" gradientUnits="userSpaceOnUse" x1="2267.0645" y1="2741.6309" x2="2240.8484" y2="2563.939">
			<stop  offset="0" style="stop-color:#FFCE4B"/>
			<stop  offset="1" style="stop-color:#F856BF"/>
		</linearGradient>
		<rect x="2114.77" y="2403.561" clip-path="url(#SVGID_52_)" fill="url(#SVGID_53_)" width="270.673" height="446.244"/>
	</g>
	<g>
		<defs>
			<path id="SVGID_54_" d="M1834.941,2016.395l-397.693,279.237c269.138,106.995,679.099-217.355,787.7-397.577
				c-29.821-30.763-57.244-63.601-82.398-97.654L1834.941,2016.395z"/>
		</defs>
		<clipPath id="SVGID_55_">
			<use xlink:href="#SVGID_54_"  overflow="visible"/>
		</clipPath>
		<linearGradient id="SVGID_56_" gradientUnits="userSpaceOnUse" x1="1761.3848" y1="2159.7754" x2="1386.314" y2="2473.2354">
			<stop  offset="0" style="stop-color:#008A80"/>
			<stop  offset="1" style="stop-color:#EBF855"/>
		</linearGradient>
		<rect x="1437.249" y="1800.401" clip-path="url(#SVGID_55_)" fill="url(#SVGID_56_)" width="787.7" height="602.226"/>
	</g>
	<g>
		<defs>
			<path id="SVGID_57_" d="M1586.22,1709.419l-548.02,100.329c251.864,264.3,930.788,67.03,1058.288-76.675
				c-14.852-23.464-28.702-47.195-41.688-70.928l-32.875-32.494L1586.22,1709.419z"/>
		</defs>
		<clipPath id="SVGID_58_">
			<use xlink:href="#SVGID_57_"  overflow="visible"/>
		</clipPath>
		<linearGradient id="SVGID_59_" gradientUnits="userSpaceOnUse" x1="1798.8999" y1="1880.6123" x2="981.843" y2="1779.1178">
			<stop  offset="0" style="stop-color:#008A80"/>
			<stop  offset="1" style="stop-color:#EBF855"/>
		</linearGradient>
		<rect x="1038.2" y="1629.65" clip-path="url(#SVGID_58_)" fill="url(#SVGID_59_)" width="1058.288" height="444.397"/>
	</g>
	<g>
		<defs>
			<path id="SVGID_60_" d="M1584.488,1539.696l-523.672-5.832c184.574,288.531,844.214,229.219,989.406,119.928
				c-19.873-36.927-37.528-73.75-53.195-109.503L1584.488,1539.696z"/>
		</defs>
		<clipPath id="SVGID_61_">
			<use xlink:href="#SVGID_60_"  overflow="visible"/>
		</clipPath>
		<linearGradient id="SVGID_62_" gradientUnits="userSpaceOnUse" x1="1938.6343" y1="1738.543" x2="980.6056" y2="1587.4727">
			<stop  offset="0" style="stop-color:#008A80"/>
			<stop  offset="1" style="stop-color:#EBF855"/>
		</linearGradient>
		<rect x="1060.816" y="1533.864" clip-path="url(#SVGID_61_)" fill="url(#SVGID_62_)" width="989.406" height="288.531"/>
	</g>
	<g>
		<defs>
			<path id="SVGID_63_" d="M2706.127,2073.986c0,0,153.465-16.152,253.62,92.078c0,0-14.542-93.692-53.31-121.156
				c66.833-174.003-135.926-315.196-320.206-284.798c-294.45,48.577-535.832,707.547-514.968,950.344
				C2269.15,2527.339,2636.143,2416.406,2706.127,2073.986"/>
		</defs>
		<clipPath id="SVGID_64_">
			<use xlink:href="#SVGID_63_"  overflow="visible"/>
		</clipPath>
		<linearGradient id="SVGID_65_" gradientUnits="userSpaceOnUse" x1="2499.3838" y1="2560.5244" x2="2528.4551" y2="1765.7046">
			<stop  offset="0" style="stop-color:#003780"/>
			<stop  offset="1" style="stop-color:#D820D2"/>
		</linearGradient>
		<rect x="2050.399" y="1729.712" clip-path="url(#SVGID_64_)" fill="url(#SVGID_65_)" width="922.871" height="980.742"/>
	</g>
	<path fill-rule="evenodd" clip-rule="evenodd" fill="#003780" d="M2112.205,2426.219
		c86.165-181.129,327.924-213.115,458.63-216.644c-102.667-8.293-191.441-38.652-267.738-81.815
		c-18.797-10.634-36.837-22.045-54.143-34.093c-0.978-0.68-1.952-1.362-2.927-2.047c-5.452,10.19-10.805,20.488-16.057,30.88
		c-26.263,51.996-49.916,106.271-70.474,160.476C2141.16,2331.331,2125.283,2379.634,2112.205,2426.219"/>
	<defs>
		
			<filter id="Adobe_OpacityMaskFilter_7_" filterUnits="userSpaceOnUse" x="2351.472" y="1755.968" width="559.644" height="171.64">
			<feColorMatrix  type="matrix" values="1 0 0 0 0  0 1 0 0 0  0 0 1 0 0  0 0 0 1 0"/>
		</filter>
	</defs>
	<mask maskUnits="userSpaceOnUse" x="2351.472" y="1755.968" width="559.644" height="171.64" id="SVGID_66_">
		<g filter="url(#Adobe_OpacityMaskFilter_7_)">
			
				<linearGradient id="SVGID_67_" gradientUnits="userSpaceOnUse" x1="1051.1826" y1="4053.1494" x2="1016.5007" y2="4644.3706" gradientTransform="matrix(1 0 0 1 1601.4761 -2575.5566)">
				<stop  offset="0" style="stop-color:#FFFFFF"/>
				<stop  offset="1" style="stop-color:#000000"/>
			</linearGradient>
			<rect x="2351.472" y="1755.968" fill="url(#SVGID_67_)" width="559.645" height="171.64"/>
		</g>
	</mask>
	<path mask="url(#SVGID_66_)" fill-rule="evenodd" clip-rule="evenodd" fill="#FCE2A6" d="M2351.472,1927.608
		c0,0,286.059-180.11,559.644-3.066c-36.459-112.71-185.925-187.356-324.884-164.433
		C2502.007,1774.006,2422.12,1837.846,2351.472,1927.608"/>
	<g>
		<defs>
			<path id="SVGID_68_" d="M2187.99,2081.28l-178.037,255.196c148.189,4.285,290.06-176.973,354.223-317.431
				c-30.503-20.328-59.023-43-85.683-67.488L2187.99,2081.28z"/>
		</defs>
		<clipPath id="SVGID_69_">
			<use xlink:href="#SVGID_68_"  overflow="visible"/>
		</clipPath>
		<linearGradient id="SVGID_70_" gradientUnits="userSpaceOnUse" x1="2257.2461" y1="2167.1367" x2="1949.0911" y2="2075.0264">
			<stop  offset="0" style="stop-color:#008A80"/>
			<stop  offset="1" style="stop-color:#EBF855"/>
		</linearGradient>
		<rect x="2009.953" y="1951.558" clip-path="url(#SVGID_69_)" fill="url(#SVGID_70_)" width="354.223" height="389.204"/>
	</g>
	<defs>
		
			<filter id="Adobe_OpacityMaskFilter_8_" filterUnits="userSpaceOnUse" x="2009.953" y="1951.558" width="295.393" height="384.919">
			<feColorMatrix  type="matrix" values="1 0 0 0 0  0 1 0 0 0  0 0 1 0 0  0 0 0 1 0"/>
		</filter>
	</defs>
	<mask maskUnits="userSpaceOnUse" x="2009.953" y="1951.558" width="295.393" height="384.919" id="SVGID_71_">
		<g filter="url(#Adobe_OpacityMaskFilter_8_)">
			
				<linearGradient id="SVGID_72_" gradientUnits="userSpaceOnUse" x1="969.7461" y1="4525.9395" x2="-325.8176" y2="5049.3262" gradientTransform="matrix(1 0 0 1 1567.9951 -2535.4727)">
				<stop  offset="0" style="stop-color:#FFFFFF"/>
				<stop  offset="1" style="stop-color:#000000"/>
			</linearGradient>
			<rect x="2009.953" y="1951.558" fill="url(#SVGID_72_)" width="295.393" height="384.919"/>
		</g>
	</mask>
	<path mask="url(#SVGID_71_)" fill-rule="evenodd" clip-rule="evenodd" fill="#005B50" d="M2187.99,2081.28l-178.037,255.196
		c0,0,221.293-138.867,295.393-361.415c-9.153-7.628-18.103-15.47-26.853-23.504L2187.99,2081.28z"/>
	<g>
		<defs>
			<path id="SVGID_73_" d="M2037.536,2065.984l-266.271,273.707c202.114,39.158,441.597-211.008,528.055-373.854
				c-30.841-24.649-59.573-51.61-86.275-80.264L2037.536,2065.984z"/>
		</defs>
		<clipPath id="SVGID_74_">
			<use xlink:href="#SVGID_73_"  overflow="visible"/>
		</clipPath>
		<linearGradient id="SVGID_75_" gradientUnits="userSpaceOnUse" x1="2019.5908" y1="2155.625" x2="1734.896" y2="2580.1675">
			<stop  offset="0" style="stop-color:#008A80"/>
			<stop  offset="1" style="stop-color:#EBF855"/>
		</linearGradient>
		<rect x="1771.265" y="1885.573" clip-path="url(#SVGID_74_)" fill="url(#SVGID_75_)" width="528.055" height="493.276"/>
	</g>
	<g>
		<defs>
			<path id="SVGID_76_" d="M1663.558,1892.831l-512.989,217.325c294.547,197.144,887.148-117.987,1006.702-290.302
				c-20.717-26.724-40.004-54.292-57.9-82.291l-27.956-17.522L1663.558,1892.831z"/>
		</defs>
		<clipPath id="SVGID_77_">
			<use xlink:href="#SVGID_76_"  overflow="visible"/>
		</clipPath>
		<linearGradient id="SVGID_78_" gradientUnits="userSpaceOnUse" x1="1744.4741" y1="1961.4346" x2="1093.8892" y2="2336.7107">
			<stop  offset="0" style="stop-color:#008A80"/>
			<stop  offset="1" style="stop-color:#EBF855"/>
		</linearGradient>
		<rect x="1150.568" y="1720.04" clip-path="url(#SVGID_77_)" fill="url(#SVGID_78_)" width="1006.702" height="587.259"/>
	</g>
	<g>
		<defs>
			<path id="SVGID_79_" d="M1635.094,1385.815l-457.158-91.436c110.173,273.587,662.837,335.739,830.164,274.653
				c-18.829-41.066-34.998-80.999-48.796-118.376L1635.094,1385.815z"/>
		</defs>
		<clipPath id="SVGID_80_">
			<use xlink:href="#SVGID_79_"  overflow="visible"/>
		</clipPath>
		<linearGradient id="SVGID_81_" gradientUnits="userSpaceOnUse" x1="1889.9849" y1="1638.5176" x2="1256.5359" y2="1262.5272">
			<stop  offset="0" style="stop-color:#008A80"/>
			<stop  offset="1" style="stop-color:#EBF855"/>
		</linearGradient>
		<rect x="1177.936" y="1294.38" clip-path="url(#SVGID_80_)" fill="url(#SVGID_81_)" width="830.164" height="335.739"/>
	</g>
	<g>
		<defs>
			<path id="SVGID_82_" d="M2351.472,1927.608c-127.405-90.368-261.944-235.757-352.909-469.1l-484.622-96.924
				c0,0,185.974,168.868,381.238,226.156c0,0,93.204,322.535,350.848,503.88c107.021,75.325,242.418,126.29,411.291,119.659
				c21.728-41.385,38.495-86.826,48.809-137.293C2706.127,2073.986,2536.303,2058.7,2351.472,1927.608"/>
		</defs>
		<clipPath id="SVGID_83_">
			<use xlink:href="#SVGID_82_"  overflow="visible"/>
		</clipPath>
		<linearGradient id="SVGID_84_" gradientUnits="userSpaceOnUse" x1="2322.4707" y1="2105.0039" x2="1927.1002" y2="1518.2734">
			<stop  offset="0" style="stop-color:#00478F"/>
			<stop  offset="1" style="stop-color:#47EADF"/>
		</linearGradient>
		<rect x="1513.941" y="1361.584" clip-path="url(#SVGID_83_)" fill="url(#SVGID_84_)" width="1192.186" height="856.326"/>
	</g>
	<defs>
		
			<filter id="Adobe_OpacityMaskFilter_9_" filterUnits="userSpaceOnUse" x="1513.941" y="1361.584" width="1192.186" height="749.205">
			<feColorMatrix  type="matrix" values="1 0 0 0 0  0 1 0 0 0  0 0 1 0 0  0 0 0 1 0"/>
		</filter>
	</defs>
	<mask maskUnits="userSpaceOnUse" x="1513.941" y="1361.584" width="1192.186" height="749.205" id="SVGID_85_">
		<g filter="url(#Adobe_OpacityMaskFilter_9_)">
			
				<linearGradient id="SVGID_86_" gradientUnits="userSpaceOnUse" x1="35.7681" y1="3806.4063" x2="963.8075" y2="4621.5249" gradientTransform="matrix(1 0 0 1 1519.3691 -2557.5977)">
				<stop  offset="0" style="stop-color:#FFFFFF"/>
				<stop  offset="1" style="stop-color:#000000"/>
			</linearGradient>
			<rect x="1513.941" y="1361.584" fill="url(#SVGID_86_)" width="1192.186" height="749.207"/>
		</g>
	</mask>
	<path mask="url(#SVGID_85_)" fill-rule="evenodd" clip-rule="evenodd" fill="#5EF9F6" d="M2351.472,1927.608
		c-127.405-90.368-261.944-235.757-352.909-469.1l-484.622-96.924c0,0,252.731,67.81,447.996,125.1
		c0,0,93.208,322.535,350.852,503.875c101.287,71.293,228,120.754,384.449,120.226c3.346-11.966,6.318-24.226,8.889-36.799
		C2706.127,2073.986,2536.303,2058.7,2351.472,1927.608"/>
	<defs>
		
			<filter id="Adobe_OpacityMaskFilter_10_" filterUnits="userSpaceOnUse" x="1060.816" y="1533.864" width="842.769" height="115.823">
			<feColorMatrix  type="matrix" values="1 0 0 0 0  0 1 0 0 0  0 0 1 0 0  0 0 0 1 0"/>
		</filter>
	</defs>
	<mask maskUnits="userSpaceOnUse" x="1060.816" y="1533.864" width="842.769" height="115.823" id="SVGID_87_">
		<g filter="url(#Adobe_OpacityMaskFilter_10_)">
			
				<linearGradient id="SVGID_88_" gradientUnits="userSpaceOnUse" x1="510.4434" y1="3991.4785" x2="-519.3939" y2="4407.146" gradientTransform="matrix(1 0 0 1 1474.9468 -2602.8027)">
				<stop  offset="0" style="stop-color:#FFFFFF"/>
				<stop  offset="1" style="stop-color:#000000"/>
			</linearGradient>
			<rect x="1060.816" y="1533.864" fill="url(#SVGID_88_)" width="842.769" height="115.823"/>
		</g>
	</mask>
	<path mask="url(#SVGID_87_)" fill-rule="evenodd" clip-rule="evenodd" fill="#005B50" d="M1060.816,1533.864
		c0,0,401.784,194.399,842.769,79.494c-4.525-12.912-7.151-21.429-8.05-24.42c-108.454,6.888-255.803-7.981-390.23-50.123
		L1060.816,1533.864z"/>
	<defs>
		
			<filter id="Adobe_OpacityMaskFilter_11_" filterUnits="userSpaceOnUse" x="1038.2" y="1702.757" width="925.334" height="129.682">
			<feColorMatrix  type="matrix" values="1 0 0 0 0  0 1 0 0 0  0 0 1 0 0  0 0 0 1 0"/>
		</filter>
	</defs>
	<mask maskUnits="userSpaceOnUse" x="1038.2" y="1702.757" width="925.334" height="129.682" id="SVGID_89_">
		<g filter="url(#Adobe_OpacityMaskFilter_11_)">
			
				<linearGradient id="SVGID_90_" gradientUnits="userSpaceOnUse" x1="842.0938" y1="4023.6592" x2="-453.4706" y2="4547.0459" gradientTransform="matrix(1 0 0 1 1472.7295 -2584.8867)">
				<stop  offset="0" style="stop-color:#FFFFFF"/>
				<stop  offset="1" style="stop-color:#000000"/>
			</linearGradient>
			<rect x="1038.2" y="1702.757" fill="url(#SVGID_90_)" width="925.334" height="129.683"/>
		</g>
	</mask>
	<path mask="url(#SVGID_89_)" fill-rule="evenodd" clip-rule="evenodd" fill="#005B50" d="M1939.801,1702.757
		c-123.315,36.063-310.452,53.996-484.383,30.606l-417.218,76.384c0,0,553.233,79.066,925.334-57.98
		C1954.703,1734.551,1946.807,1718.115,1939.801,1702.757"/>
	<defs>
		
			<filter id="Adobe_OpacityMaskFilter_12_" filterUnits="userSpaceOnUse" x="1150.568" y="1806.024" width="865.604" height="304.131">
			<feColorMatrix  type="matrix" values="1 0 0 0 0  0 1 0 0 0  0 0 1 0 0  0 0 0 1 0"/>
		</filter>
	</defs>
	<mask maskUnits="userSpaceOnUse" x="1150.568" y="1806.024" width="865.604" height="304.131" id="SVGID_91_">
		<g filter="url(#Adobe_OpacityMaskFilter_12_)">
			
				<linearGradient id="SVGID_92_" gradientUnits="userSpaceOnUse" x1="908.8433" y1="4188.8389" x2="-386.7195" y2="4712.2251" gradientTransform="matrix(1 0 0 1 1483.7456 -2557.6602)">
				<stop  offset="0" style="stop-color:#FFFFFF"/>
				<stop  offset="1" style="stop-color:#000000"/>
			</linearGradient>
			<rect x="1150.568" y="1806.022" fill="url(#SVGID_92_)" width="865.605" height="304.133"/>
		</g>
	</mask>
	<path mask="url(#SVGID_91_)" fill-rule="evenodd" clip-rule="evenodd" fill="#005B50" d="M1150.568,2110.155
		c0,0,507.095-37.671,865.604-266.402c-8.106-12.733-15.757-25.339-22.972-37.729c-102.91,53.712-257.679,103.285-416.955,123.798
		L1150.568,2110.155z"/>
	<defs>
		
			<filter id="Adobe_OpacityMaskFilter_13_" filterUnits="userSpaceOnUse" x="1437.249" y="1912.89" width="645.833" height="382.742">
			<feColorMatrix  type="matrix" values="1 0 0 0 0  0 1 0 0 0  0 0 1 0 0  0 0 0 1 0"/>
		</filter>
	</defs>
	<mask maskUnits="userSpaceOnUse" x="1437.249" y="1912.89" width="645.833" height="382.742" id="SVGID_93_">
		<g filter="url(#Adobe_OpacityMaskFilter_13_)">
			
				<linearGradient id="SVGID_94_" gradientUnits="userSpaceOnUse" x1="956.2871" y1="4357.7285" x2="-339.2747" y2="4881.1143" gradientTransform="matrix(1 0 0 1 1511.8501 -2539.4775)">
				<stop  offset="0" style="stop-color:#FFFFFF"/>
				<stop  offset="1" style="stop-color:#000000"/>
			</linearGradient>
			<rect x="1437.249" y="1912.89" fill="url(#SVGID_94_)" width="645.833" height="382.742"/>
		</g>
	</mask>
	<path mask="url(#SVGID_93_)" fill-rule="evenodd" clip-rule="evenodd" fill="#005B50" d="M1437.249,2295.632
		c0,0,329.888-32.243,645.833-358.55c-6.5-8.037-12.807-16.108-18.926-24.191c-89.239,70.922-221.478,146.276-363.084,197.497
		L1437.249,2295.632z"/>
	<defs>
		
			<filter id="Adobe_OpacityMaskFilter_14_" filterUnits="userSpaceOnUse" x="1771.265" y="2003.295" width="403.86" height="336.396">
			<feColorMatrix  type="matrix" values="1 0 0 0 0  0 1 0 0 0  0 0 1 0 0  0 0 0 1 0"/>
		</filter>
	</defs>
	<mask maskUnits="userSpaceOnUse" x="1771.265" y="2003.295" width="403.86" height="336.396" id="SVGID_95_">
		<g filter="url(#Adobe_OpacityMaskFilter_14_)">
			
				<linearGradient id="SVGID_96_" gradientUnits="userSpaceOnUse" x1="976.8423" y1="4485.1279" x2="-318.7218" y2="5008.6172" gradientTransform="matrix(1 0 0 1 1544.5957 -2535.1582)">
				<stop  offset="0" style="stop-color:#FFFFFF"/>
				<stop  offset="1" style="stop-color:#000000"/>
			</linearGradient>
			<rect x="1771.265" y="2003.295" fill="url(#SVGID_96_)" width="403.86" height="336.396"/>
		</g>
	</mask>
	<path mask="url(#SVGID_95_)" fill-rule="evenodd" clip-rule="evenodd" fill="#005B50" d="M1771.265,2339.691
		c0,0,238.355-114.21,403.86-304.864c-11.381-10.287-22.359-20.816-32.947-31.532c-58.573,62.145-136.166,127.944-221.812,183.13
		L1771.265,2339.691z"/>
</g>
</svg>
